<!--?xml version="1.0" encoding="utf-8"?-->
<!-- Generator: Adobe Illustrator 18.1.1, SVG Export Plug-In . SVG Version: 6.00 Build 0)  -->

<svg version="1.1" id="_x32_" xmlns="http://www.w3.org/2000/svg" xmlns:xlink="http://www.w3.org/1999/xlink" x="0px" y="0px" viewBox="0 0 512 512" style="width: 32px; height: 32px; opacity: 1;" xml:space="preserve">
<style type="text/css">
	.st0{fill:#4B4B4B;}
</style>
<g>
	<path class="st0" d="M323.682,323.349h-135.38c-8.138,0-14.738,6.6-14.738,14.73v17.884c0,8.138,6.6,14.738,14.738,14.738h135.38
		c8.139,0,14.739-6.6,14.739-14.738v-17.884C338.42,329.949,331.82,323.349,323.682,323.349z" style="fill: rgb(75, 75, 75);"></path>
	<path class="st0" d="M256,0c-91.181,0-165.1,73.928-165.1,165.1c0,58.685,30.696,110.098,76.829,139.382h176.544
		c46.133-29.284,76.829-80.697,76.829-139.382C421.101,73.928,347.181,0,256,0z" style="fill: rgb(75, 75, 75);"></path>
	<polygon class="st0" points="228.128,440.796 228.128,512 283.871,512 283.871,440.77 310.061,387.979 201.922,387.979 	" style="fill: rgb(75, 75, 75);"></polygon>
</g>
</svg>
